<svg version="1.1" xmlns="http://www.w3.org/2000/svg" xmlns:xlink="http://www.w3.org/1999/xlink" width="100%" height="100%" viewBox="0,0,256,256"><g fill="#d1cb4f" fill-rule="evenodd" stroke="none" stroke-width="1" stroke-linecap="butt" stroke-linejoin="round" stroke-miterlimit="2" stroke-dasharray="" stroke-dashoffset="0" font-family="none" font-weight="none" font-size="none" text-anchor="none" style="mix-blend-mode: normal"><g transform="translate(0.008,0) scale(8,8)"><g id="Icon"><path d="M15.999,2c-7.726,0 -14,6.273 -14,14c0,7.727 6.274,14 14,14c7.727,0 14,-6.273 14,-14c0,-7.727 -6.273,-14 -14,-14zM15.999,4c6.623,0 12,5.377 12,12c0,6.623 -5.377,12 -12,12c-6.623,0 -12,-5.377 -12,-12c0,-6.623 5.377,-12 12,-12z"></path><path d="M22.447,16.882c0.339,-0.169 0.553,-0.515 0.553,-0.894c0,-0.379 -0.214,-0.725 -0.553,-0.895l-10,-5c-0.31,-0.155 -0.678,-0.138 -0.973,0.044c-0.295,0.182 -0.474,0.504 -0.474,0.851v10c0,0.346 0.179,0.668 0.474,0.85c0.295,0.183 0.663,0.199 0.973,0.044zM19.764,15.988l-6.764,3.382v-6.764z"></path></g></g></g></svg>