<svg id="SvgjsSvg1031" width="288" height="288" xmlns="http://www.w3.org/2000/svg" version="1.1" xmlns:xlink="http://www.w3.org/1999/xlink" xmlns:svgjs="http://svgjs.com/svgjs"><defs id="SvgjsDefs1032"></defs><g id="SvgjsG1033"><svg xmlns="http://www.w3.org/2000/svg" xmlns:svgjs="http://svgjs.com/svgjs" xmlns:xlink="http://www.w3.org/1999/xlink" viewBox="0 0 288 288" width="288" height="288"><svg xmlns="http://www.w3.org/2000/svg" viewBox="0 0 24 24" width="288" height="288"><path fill="none" d="M0 0h24v24H0z"></path><path fill="#a09a1a" d="M16 4a1 1 0 0 1 1 1v4.2l5.213-3.65a.5.5 0 0 1 .787.41v12.08a.5.5 0 0 1-.787.41L17 14.8V19a1 1 0 0 1-1 1H2a1 1 0 0 1-1-1V5a1 1 0 0 1 1-1h14zm-1 2H3v12h12V6zM7.4 8.829a.4.4 0 0 1 .215.062l4.355 2.772a.4.4 0 0 1 0 .674L7.615 15.11A.4.4 0 0 1 7 14.77V9.23c0-.221.18-.4.4-.4zM21 8.84l-4 2.8v.718l4 2.8V8.84z" class="color000 svgShape colord1cb4f"></path></svg></svg></g></svg>